HIERARCHY
ROOT root_translation_joint
{
	OFFSET	0	0	0
	CHANNELS 6 Xposition Yposition Zposition Zrotation Xrotation Yrotation
	JOINT torso_x_joint
	{
		OFFSET	0	0.010284	0.327936
		CHANNELS 3  Zrotation Xrotation Yrotation
		JOINT head_x_joint
		{
			OFFSET	0	-0.020052	0.50232
			CHANNELS 3  Zrotation Xrotation Yrotation
			JOINT upper_left_specula_joint
			{
				OFFSET	-0.0873828	0.0381	-0.153156
				CHANNELS 3  Zrotation Xrotation Yrotation
				JOINT upper_left_arm_x_joint
				{
					OFFSET	-0.169296	0	0
					CHANNELS 3  Zrotation Xrotation Yrotation
					JOINT lower_left_arm_joint
					{
						OFFSET	-0.001464	-0.00114	-0.34296
						CHANNELS 3  Zrotation Xrotation Yrotation
						JOINT left_hand_x_joint
						{
							OFFSET	-0.001728	-0.004992	-0.325056
							CHANNELS 3  Zrotation Xrotation Yrotation
							JOINT left_hand_endeffector_joint
							{
								OFFSET	-0.009816	0.007404	-0.21684
								CHANNELS 3  Zrotation Xrotation Yrotation
								End Site
								{
									OFFSET	-2.25979e-05	1.70451e-05	-0.000499198
								}
							}
							JOINT left_hand_cp_1_joint
							{
								OFFSET	0.01757	0.0606	-0.22569
								CHANNELS 3  Zrotation Xrotation Yrotation
								End Site
								{
									OFFSET	3.74876e-05	0.000129297	-0.000481536
								}
							}
							JOINT left_hand_cp_2_joint
							{
								OFFSET	0.01757	-0.06468	-0.22569
								CHANNELS 3  Zrotation Xrotation Yrotation
								End Site
								{
									OFFSET	3.73144e-05	-0.000137365	-0.000479311
								}
							}
							JOINT left_hand_cp_3_joint
							{
								OFFSET	0.01757	-0.06468	-0.02705
								CHANNELS 3  Zrotation Xrotation Yrotation
								End Site
								{
									OFFSET	0.000121547	-0.000447448	-0.000187128
								}
							}
							JOINT left_hand_cp_4_joint
							{
								OFFSET	0.01757	0.0606	-0.02705
								CHANNELS 3  Zrotation Xrotation Yrotation
								End Site
								{
									OFFSET	0.000127969	0.000441372	-0.000197015
								}
							}
						}
					}
				}
			}
			JOINT upper_right_specula_joint
			{
				OFFSET	0.0873852	0.0381	-0.153312
				CHANNELS 3  Zrotation Xrotation Yrotation
				JOINT upper_right_arm_x_joint
				{
					OFFSET	0.16926	0.003768	-0.0003
					CHANNELS 3  Zrotation Xrotation Yrotation
					JOINT lower_right_arm_joint
					{
						OFFSET	-0.005592	-0.007404	-0.342828
						CHANNELS 3  Zrotation Xrotation Yrotation
						JOINT right_hand_x_joint
						{
							OFFSET	-0.004728	-0.003084	-0.325056
							CHANNELS 3  Zrotation Xrotation Yrotation
							JOINT right_hand_endeffector_joint
							{
								OFFSET	-0.000348	0.010884	-0.21684
								CHANNELS 3  Zrotation Xrotation Yrotation
								End Site
								{
									OFFSET	-8.01425e-07	2.50653e-05	-0.000499371
								}
							}
							JOINT right_hand_cp_1_joint
							{
								OFFSET	-0.01229	0.05553	-0.01712
								CHANNELS 3  Zrotation Xrotation Yrotation
								End Site
								{
									OFFSET	-0.000103461	0.000467467	-0.000144121
								}
							}
							JOINT right_hand_cp_2_joint
							{
								OFFSET	-0.01229	-0.06975	-0.01712
								CHANNELS 3  Zrotation Xrotation Yrotation
								End Site
								{
									OFFSET	-8.43349e-05	-0.00047863	-0.000117479
								}
							}
							JOINT right_hand_cp_3_joint
							{
								OFFSET	-0.01229	-0.06975	-0.21577
								CHANNELS 3  Zrotation Xrotation Yrotation
								End Site
								{
									OFFSET	-2.7059e-05	-0.000153569	-0.000475062
								}
							}
							JOINT right_hand_cp_4_joint
							{
								OFFSET	-0.01229	0.05553	-0.21577
								CHANNELS 3  Zrotation Xrotation Yrotation
								End Site
								{
									OFFSET	-2.75388e-05	0.000124429	-0.000483486
								}
							}
						}
					}
				}
			}
		}
	}
	JOINT upper_left_leg_x_joint
	{
		OFFSET	-0.106044	-0.001956	-0.144312
		CHANNELS 3  Zrotation Xrotation Yrotation
		JOINT lower_left_leg_joint
		{
			OFFSET	-0.025332	-0.01956	-0.477768
			CHANNELS 3  Zrotation Xrotation Yrotation
			JOINT left_foot_x_joint
			{
				OFFSET	-0.008988	0.036996	-0.474504
				CHANNELS 3  Zrotation Xrotation Yrotation
				JOINT left_foot_cp_1_joint
				{
					OFFSET	0.08027	0.27372	-0.12195
					CHANNELS 3  Zrotation Xrotation Yrotation
					End Site
					{
						OFFSET	0.000129375	0.000441168	-0.000196553
					}
				}
				JOINT left_foot_cp_2_joint
				{
					OFFSET	-0.09166	0.27372	-0.12195
					CHANNELS 3  Zrotation Xrotation Yrotation
					End Site
					{
						OFFSET	-0.000146252	0.000436747	-0.000194583
					}
				}
				JOINT left_foot_cp_3_joint
				{
					OFFSET	-0.09166	-0.07769	-0.12195
					CHANNELS 3  Zrotation Xrotation Yrotation
					End Site
					{
						OFFSET	-0.0002677	-0.0002269	-0.000356164
					}
				}
				JOINT left_foot_cp_4_joint
				{
					OFFSET	0.08027	-0.07769	-0.12195
					CHANNELS 3  Zrotation Xrotation Yrotation
					End Site
					{
						OFFSET	0.000242682	-0.000234882	-0.000368695
					}
				}
			}
		}
	}
	JOINT upper_right_leg_x_joint
	{
		OFFSET	0.106044	-0.001956	-0.1443
		CHANNELS 3  Zrotation Xrotation Yrotation
		JOINT lower_right_leg_joint
		{
			OFFSET	0.025332	-0.01956	-0.47778
			CHANNELS 3  Zrotation Xrotation Yrotation
			JOINT right_foot_x_joint
			{
				OFFSET	0.008988	0.036996	-0.474504
				CHANNELS 3  Zrotation Xrotation Yrotation
				JOINT right_foot_cp_1_joint
				{
					OFFSET	0.10495	0.2684	-0.12195
					CHANNELS 3  Zrotation Xrotation Yrotation
					End Site
					{
						OFFSET	0.00016769	0.000428851	-0.000194852
					}
				}
				JOINT right_foot_cp_2_joint
				{
					OFFSET	-0.06698	0.2684	-0.12195
					CHANNELS 3  Zrotation Xrotation Yrotation
					End Site
					{
						OFFSET	-0.000110777	0.000443902	-0.000201691
					}
				}
				JOINT right_foot_cp_3_joint
				{
					OFFSET	-0.06698	-0.08301	-0.12195
					CHANNELS 3  Zrotation Xrotation Yrotation
					End Site
					{
						OFFSET	-0.00020671	-0.00025618	-0.000376355
					}
				}
				JOINT right_foot_cp_4_joint
				{
					OFFSET	0.10495	-0.08301	-0.12195
					CHANNELS 3  Zrotation Xrotation Yrotation
					End Site
					{
						OFFSET	0.000289847	-0.000229254	-0.000336796
					}
				}
			}
		}
	}
}
MOTION
Frames:	15
Frame Time: 1
0	0	0	-90	-3.50824e-15	-90	-0	0	-0	-0	0	-0	-0	0	-0	-0	0	-0	-0	0	-0	-0	0	-0	-0	0	-0	-0	0	-0	-0	0	-0	-0	0	-0	-0	0	-0	-0	0	-0	-0	0	-0	-0	0	-0	-0	0	-0	-0	0	-0	-0	0	-0	-0	0	-0	-0	0	-0	-0	0	-0	-0	0	-0	-0	0	-0	-0	0	-0	-0	0	-0	-0	0	-0	-0	0	-0	-0	0	-0	-0	0	-0	-0	0	-0	-0	0	-0	-0	0	-0	-0	0	-0	-0	0	-0	-0	0	-0
0	0.8	0	-90	-3.50824e-15	-90	-0	0	-0	-0	0	-0	-0	0	-0	-31.4885	-34.1961	61.5901	-0	67.0979	-0	-22.6396	14.5688	38.7907	-0	0	-0	-0	0	-0	-0	0	-0	-0	0	-0	-0	0	-0	-0	0	-0	19.1217	-23.8672	-38.1659	-180	86.7339	-180	47.7596	-12.3206	-24.2181	-0	0	-0	-0	0	-0	-0	0	-0	-0	0	-0	-0	0	-0	8.62633	84.9032	30.1234	-180	-87.9279	-180	0.39278	6.53126	-2.68545	-0	0	-0	-0	0	-0	-0	0	-0	-0	0	-0	52.7118	79.1224	-35.4905	-0	-66.6743	-0	1.89242	-14.8069	6.74329	-0	0	-0	-0	0	-0	-0	0	-0	-0	0	-0
0	0.819612	0.0980581	-90	8.82523	-90	-0	0	-0	-0	0	-0	-0	0	-0	-18.1797	-37.6918	61.4364	-0	60.8372	-0	-12.8095	12.0772	37.9091	-0	0	-0	-0	0	-0	-0	0	-0	-0	0	-0	-0	0	-0	-0	0	-0	41.1059	-16.6672	-32.2338	-0	87.2116	-0	51.6167	-14.076	-22.2886	-0	0	-0	-0	0	-0	-0	0	-0	-0	0	-0	-0	0	-0	3.18538	77.8766	47.1917	-0	-81.2394	-0	-0.291309	0.252793	-8.89847	-0	0	-0	-0	0	-0	-0	0	-0	-0	0	-0	31.8467	77.0992	-2.77604	-0	-55.8406	-0	0.935613	-19.5911	0.876914	-0	0	-0	-0	0	-0	-0	0	-0	-0	0	-0
0	0.819612	0.0980581	-90	8.82523	-90	-0	0	-0	-0	0	-0	-0	0	-0	-32.7649	-28.1017	51.8412	-0	75.469	-0	-49.0865	24.312	39.0735	-0	0	-0	-0	0	-0	-0	0	-0	-0	0	-0	-0	0	-0	-0	0	-0	40.5367	-17.3761	-32.7603	-0	87.6336	-0	51.8837	-14.1017	-20.3907	-0	0	-0	-0	0	-0	-0	0	-0	-0	0	-0	-0	0	-0	4.0632	77.0551	46.4888	-0	-81.3436	-0	-0.881599	0.79812	-9.27926	-0	0	-0	-0	0	-0	-0	0	-0	-0	0	-0	31.1827	76.7856	-2.12351	-0	-55.8676	-0	0.959796	-21.129	0.867955	-0	0	-0	-0	0	-0	-0	0	-0	-0	0	-0
0	0.839223	0.196116	-90	17.6505	-90	-0	0	-0	-0	0	-0	-0	0	-0	-14.6997	-34.4732	52.9062	-0	73.0891	-0	-46.5641	23.3145	43.7542	-0	0	-0	-0	0	-0	-0	0	-0	-0	0	-0	-0	0	-0	-0	0	-0	60.531	-7.22388	-28.5861	-0	77.2871	-0	54.4786	-16.0472	-19.06	-0	0	-0	-0	0	-0	-0	0	-0	-0	0	-0	-0	0	-0	16.4251	68.163	46.508	-0	-65.3542	-0	-3.41295	-8.22167	-15.8716	-0	0	-0	-0	0	-0	-0	0	-0	-0	0	-0	-45.4772	77.9163	36.954	-0	-82.4799	-0	0.482401	1.84424	-6.89549	-0	0	-0	-0	0	-0	-0	0	-0	-0	0	-0
0	0.839223	0.196116	-90	17.6505	-90	-0	0	-0	-0	0	-0	-0	0	-0	-15.2336	-34.1372	51.857	-0	72.2916	-0	-47.6398	21.9562	46.7223	-0	0	-0	-0	0	-0	-0	0	-0	-0	0	-0	-0	0	-0	-0	0	-0	41.9171	-3.68494	-10.0577	-0	87.286	-0	10.036	-19.9067	-37.6864	-0	0	-0	-0	0	-0	-0	0	-0	-0	0	-0	-0	0	-0	14.8477	68.9593	47.5878	-0	-66.0552	-0	-3.22422	-7.9273	-15.8934	-0	0	-0	-0	0	-0	-0	0	-0	-0	0	-0	-44.7087	78.2132	35.8611	-0	-82.9505	-0	0.490761	1.51733	-6.92082	-0	0	-0	-0	0	-0	-0	0	-0	-0	0	-0
0	0.858835	0.294174	-90	26.4757	-90	-0	0	-0	-0	0	-0	-0	0	-0	-0.953659	-37.7042	51.1026	-0	65.1604	-0	-38.0131	17.3428	51.3795	-0	0	-0	-0	0	-0	-0	0	-0	-0	0	-0	-0	0	-0	-0	0	-0	41.9171	-3.68494	-10.0577	-0	87.286	-0	10.036	-19.9067	-37.6864	-0	0	-0	-0	0	-0	-0	0	-0	-0	0	-0	-0	0	-0	-7.22664	62.5536	43.3105	-180	-88.2456	-180	2.58539	21.848	-19.2416	-0	0	-0	-0	0	-0	-0	0	-0	-0	0	-0	-44.6126	72.2016	47.4016	-0	-81.542	-0	1.91008	3.93746	-13.0954	-0	0	-0	-0	0	-0	-0	0	-0	-0	0	-0
0	0.878446	0.392232	-90	35.3009	-90	-0	0	-0	-0	0	-0	-0	0	-0	9.13498	-38.0654	48.8785	-0	53.4585	-0	-19.611	11.1161	52.9665	-0	0	-0	-0	0	-0	-0	0	-0	-0	0	-0	-0	0	-0	-0	0	-0	41.9171	-3.68494	-10.0577	-0	87.286	-0	10.036	-19.9067	-37.6864	-0	0	-0	-0	0	-0	-0	0	-0	-0	0	-0	-0	0	-0	3.23796	53.6297	45.6866	-0	-81.7212	-0	4.9301	18.5198	-26.6976	-0	0	-0	-0	0	-0	-0	0	-0	-0	0	-0	-35.4387	65.236	49.8809	-0	-78.6253	-0	4.20199	3.99023	-19.0214	-0	0	-0	-0	0	-0	-0	0	-0	-0	0	-0
0	0.898058	0.49029	-90	44.1261	-90	-0	0	-0	-0	0	-0	-0	0	-0	8.18167	-19.8282	38.5326	-0	65.7742	-0	-50.5663	12.6644	34.9265	-0	0	-0	-0	0	-0	-0	0	-0	-0	0	-0	-0	0	-0	-0	0	-0	41.9171	-3.68494	-10.0577	-0	87.286	-0	10.036	-19.9067	-37.6864	-0	0	-0	-0	0	-0	-0	0	-0	-0	0	-0	-0	0	-0	14.7981	41.5165	46.8032	-0	-66.4275	-0	0.901265	12.458	-33.0137	-0	0	-0	-0	0	-0	-0	0	-0	-0	0	-0	-23.8132	56.8194	49.7065	-0	-73.5951	-0	4.56331	3.85575	-25.0656	-0	0	-0	-0	0	-0	-0	0	-0	-0	0	-0
0	0.91767	0.588348	-90	52.9514	-90	-0	0	-0	-0	0	-0	-0	0	-0	22.353	-22.6686	39.4208	-0	56.714	-0	-39.9879	7.41911	43.2265	-0	0	-0	-0	0	-0	-0	0	-0	-0	0	-0	-0	0	-0	-0	0	-0	41.9171	-3.68494	-10.0577	-0	87.286	-0	10.036	-19.9067	-37.6864	-0	0	-0	-0	0	-0	-0	0	-0	-0	0	-0	-0	0	-0	30.648	59.0972	36.186	-0	-78.3859	-0	4.57784	11.895	-18.7156	-0	0	-0	-0	0	-0	-0	0	-0	-0	0	-0	-11.3717	49.1006	49.0843	-0	-66.1347	-0	7.01934	2.70513	-30.0229	-0	0	-0	-0	0	-0	-0	0	-0	-0	0	-0
0	0.937281	0.686406	-90	61.7766	-90	-0	0	-0	-0	0	-0	-0	0	-0	-60.6806	-53.9794	-26.6679	-0	59.1838	-0	1.9174	-0.838798	103.001	-0	0	-0	-0	0	-0	-0	0	-0	-0	0	-0	-0	0	-0	-0	0	-0	41.9171	-3.68494	-10.0577	-0	87.286	-0	10.036	-19.9067	-37.6864	-0	0	-0	-0	0	-0	-0	0	-0	-0	0	-0	-0	0	-0	38.9674	48.7922	40.4004	-0	-64.1741	-0	2.89689	6.8202	-25.1599	-0	0	-0	-0	0	-0	-0	0	-0	-0	0	-0	1.92078	40.4191	47.6237	-0	-55.9129	-0	6.52322	0.0991434	-34.0645	-0	0	-0	-0	0	-0	-0	0	-0	-0	0	-0
0	0.937281	0.686406	-90	61.7766	-90	-0	0	-0	-0	0	-0	-0	0	-0	-60.6693	-53.4047	-26.8578	-0	59.522	-0	1.47112	-0.881922	102.895	-0	0	-0	-0	0	-0	-0	0	-0	-0	0	-0	-0	0	-0	-0	0	-0	41.9171	-3.68494	-10.0577	-0	87.286	-0	10.036	-19.9067	-37.6864	-0	0	-0	-0	0	-0	-0	0	-0	-0	0	-0	-0	0	-0	39.3127	47.9119	40.1782	-0	-64.0696	-0	2.32129	7.56106	-25.3362	-0	0	-0	-0	0	-0	-0	0	-0	-0	0	-0	-17.6466	15.3507	-33.5955	-0	-65.1539	-0	-23.6089	29.7731	44.8915	-0	0	-0	-0	0	-0	-0	0	-0	-0	0	-0
0	0.956893	0.784465	-90	70.6018	-90	-0	0	-0	-0	0	-0	-0	0	-0	-22.7851	-54.4477	-5.34217	-0	52.6523	-0	54.7845	0.579743	91.433	-0	0	-0	-0	0	-0	-0	0	-0	-0	0	-0	-0	0	-0	-0	0	-0	41.9171	-3.68494	-10.0577	-0	87.286	-0	10.036	-19.9067	-37.6864	-0	0	-0	-0	0	-0	-0	0	-0	-0	0	-0	-0	0	-0	-13.432	61.5768	-25.0471	-0	-78.0707	-0	-4.61304	13.8225	12.8684	-0	0	-0	-0	0	-0	-0	0	-0	-0	0	-0	-19.8329	11.655	-33.5432	-0	-57.0052	-0	-20.1754	28.2803	44.0277	-0	0	-0	-0	0	-0	-0	0	-0	-0	0	-0
0	0.976505	0.882523	-90	79.427	-90	-0	0	-0	-0	0	-0	-0	0	-0	-62.6591	-25.5455	-34.6376	-0	29.2733	-0	43.9242	23.6005	109.494	-0	0	-0	-0	0	-0	-0	0	-0	-0	0	-0	-0	0	-0	-0	0	-0	41.9171	-3.68494	-10.0577	-0	87.286	-0	10.036	-19.9067	-37.6864	-0	0	-0	-0	0	-0	-0	0	-0	-0	0	-0	-0	0	-0	-19.6684	57.4964	-18.6395	-0	-82.0148	-0	-7.08441	20.9931	12.754	-0	0	-0	-0	0	-0	-0	0	-0	-0	0	-0	-21.9201	5.36537	-34.1628	-0	-43.1844	-0	-13.4063	26.9692	41.1439	-0	0	-0	-0	0	-0	-0	0	-0	-0	0	-0
0	0.996116	0.980581	-90	88.2523	-90	-0	0	-0	-0	0	-0	-0	0	-0	-123.898	-32.5463	-44.4614	-0	79.5053	-0	9.45806	-29.6887	22.0384	-0	0	-0	-0	0	-0	-0	0	-0	-0	0	-0	-0	0	-0	-0	0	-0	41.9171	-3.68494	-10.0577	-0	87.286	-0	10.036	-19.9067	-37.6864	-0	0	-0	-0	0	-0	-0	0	-0	-0	0	-0	-0	0	-0	-23.0524	51.4551	-16.9408	-0	-82.6258	-0	-8.01078	27.2304	14.1126	-0	0	-0	-0	0	-0	-0	0	-0	-0	0	-0	-68.0554	50.9427	-17.7451	-0	-78.7402	-0	-28.0911	18.6191	22.25	-0	0	-0	-0	0	-0	-0	0	-0	-0	0	-0
